<?xml version="1.0" encoding="utf-8"?>
<!-- Generator: Adobe Illustrator 15.0.0, SVG Export Plug-In . SVG Version: 6.00 Build 0)  -->
<!DOCTYPE svg PUBLIC "-//W3C//DTD SVG 1.1//EN" "http://www.w3.org/Graphics/SVG/1.1/DTD/svg11.dtd">
<svg version="1.1" id="Layer_1" xmlns="http://www.w3.org/2000/svg" xmlns:xlink="http://www.w3.org/1999/xlink" x="0px" y="0px"
	 width="528px" height="167px" viewBox="0 0 528 167" enable-background="new 0 0 528 167" xml:space="preserve">
<g>
	<g>
		<defs>
			<rect id="SVGID_1_" y="0.615" width="527.997" height="166.324"/>
		</defs>
		<clipPath id="SVGID_2_">
			<use xlink:href="#SVGID_1_"  overflow="visible"/>
		</clipPath>
		<g clip-path="url(#SVGID_2_)">
			<g>
				<defs>
					<rect id="SVGID_3_" width="528" height="167"/>
				</defs>
				<defs>
					<rect id="SVGID_4_" width="528" height="167"/>
				</defs>
				<defs>
					<rect id="SVGID_5_" width="528" height="167"/>
				</defs>
				<clipPath id="SVGID_6_">
					<use xlink:href="#SVGID_3_"  overflow="visible"/>
				</clipPath>
				<clipPath id="SVGID_7_" clip-path="url(#SVGID_6_)">
					<use xlink:href="#SVGID_4_"  overflow="visible"/>
				</clipPath>
				<clipPath id="SVGID_8_" clip-path="url(#SVGID_7_)">
					<use xlink:href="#SVGID_5_"  overflow="visible"/>
				</clipPath>
				<polyline clip-path="url(#SVGID_8_)" points="448.8,41.417 485.006,41.417 485.006,77.216 491.634,77.216 491.634,41.417 
					527.997,41.417 527.997,35.414 491.634,35.414 491.634,0.615 485.006,0.615 485.006,35.414 448.8,35.414 448.8,41.417 				"/>
				<path clip-path="url(#SVGID_8_)" d="M320.217,167c-20.787,0-34.756-12.049-34.756-29.984V88.509h18.366v48.507
					c0,10.336,8.829,14.004,16.39,14.004c10.25,0,16.617-5.364,16.617-14.004V88.509H355.2v48.507
					C355.2,155.23,341.469,167,320.217,167"/>
				<path clip-path="url(#SVGID_8_)" d="M238.385,167c-15.601,0-29.154-4.87-41.436-14.887l-0.78-0.637l10.476-12.675l0.768,0.616
					c7.148,5.718,17.154,12.283,31.2,12.283c7.351,0,15.935-2.508,15.935-9.57c0-6.059-6.268-7.72-17.836-8.664
					c-14.431-0.908-36.265-2.281-36.265-22.706c0-18.084,16.369-24.526,31.687-24.526c15.105,0,28.539,5.48,35.453,10.176
					l0.906,0.615l-10.617,12.947l-0.765-0.567c-2.449-1.82-11.518-7.759-25.433-7.759c-6.274,0-12.979,2.127-12.979,8.094
					c0,5.352,8.317,6.021,17.122,6.73l1.397,0.113c13.299,0.896,35.582,2.393,35.582,23.956C272.8,157.355,260.256,167,238.385,167"
					/>
			</g>
		</g>
		<g clip-path="url(#SVGID_2_)">
			<g>
				<defs>
					<rect id="SVGID_9_" width="528" height="167"/>
				</defs>
				<clipPath id="SVGID_10_">
					<use xlink:href="#SVGID_9_"  overflow="visible"/>
				</clipPath>
				<polyline clip-path="url(#SVGID_10_)" points="526.22,164.727 459.776,164.727 459.776,88.509 523.605,88.509 523.605,104.602 
					478.029,104.602 478.029,117.036 505.42,117.036 505.42,133.016 478.029,133.016 478.029,148.747 526.22,148.747 
					526.22,164.727 				"/>
			</g>
			<g>
				<defs>
					<rect id="SVGID_11_" width="528" height="167"/>
				</defs>
				<clipPath id="SVGID_12_">
					<use xlink:href="#SVGID_11_"  overflow="visible"/>
				</clipPath>
				<rect x="165.247" y="88.509" clip-path="url(#SVGID_12_)" width="18.252" height="76.218"/>
			</g>
			<g>
				<defs>
					<rect id="SVGID_13_" width="528" height="167"/>
				</defs>
				<clipPath id="SVGID_14_">
					<use xlink:href="#SVGID_13_"  overflow="visible"/>
				</clipPath>
				<polyline clip-path="url(#SVGID_14_)" points="149.687,164.727 83.244,164.727 83.244,88.509 147.073,88.509 147.073,104.602 
					101.498,104.602 101.498,117.036 128.888,117.036 128.888,133.016 101.498,133.016 101.498,148.747 149.687,148.747 
					149.687,164.727 				"/>
			</g>
			<g>
				<defs>
					<rect id="SVGID_15_" width="528" height="167"/>
				</defs>
				<clipPath id="SVGID_16_">
					<use xlink:href="#SVGID_15_"  overflow="visible"/>
				</clipPath>
				<polyline clip-path="url(#SVGID_16_)" points="72.617,164.727 10.721,164.727 10.721,88.509 28.973,88.509 28.973,148.747 
					72.617,148.747 72.617,164.727 				"/>
			</g>
			<g>
				<defs>
					<rect id="SVGID_17_" width="528" height="167"/>
				</defs>
				<clipPath id="SVGID_18_">
					<use xlink:href="#SVGID_17_"  overflow="visible"/>
				</clipPath>
				<path clip-path="url(#SVGID_18_)" d="M416.553,121.697h-25.596V104.26h24.46c2.855,0,5.816,0.348,8.157,2.891
					c1.519,1.519,2.322,3.515,2.322,5.771C425.896,117.925,421.879,121.697,416.553,121.697 M429.679,134.285
					c9.286-4.428,14.584-12.159,14.584-21.362c0-5.961-2.275-11.655-6.414-16.036c-5.383-5.638-12.905-8.378-23.001-8.378h-42.145
					v76.218h18.254V137.45h20.459l15.002,27.276h20.97L429.679,134.285z"/>
			</g>
			<g>
				<defs>
					<rect id="SVGID_19_" width="528" height="167"/>
				</defs>
				<clipPath id="SVGID_20_">
					<use xlink:href="#SVGID_19_"  overflow="visible"/>
				</clipPath>
				<polyline clip-path="url(#SVGID_20_)" points="464.147,76.848 402.344,76.848 402.344,0.746 420.571,0.746 420.571,60.89 
					464.147,60.89 464.147,76.848 				"/>
			</g>
			<g>
				<defs>
					<rect id="SVGID_21_" width="528" height="167"/>
				</defs>
				<clipPath id="SVGID_22_">
					<use xlink:href="#SVGID_21_"  overflow="visible"/>
				</clipPath>
				<polyline clip-path="url(#SVGID_22_)" points="389.837,76.848 323.494,76.848 323.494,0.746 387.228,0.746 387.228,16.817 
					341.722,16.817 341.722,29.23 369.07,29.23 369.07,45.188 341.722,45.188 341.722,60.89 389.837,60.89 389.837,76.848 				"/>
			</g>
			<g>
				<defs>
					<rect id="SVGID_23_" width="528" height="167"/>
				</defs>
				<clipPath id="SVGID_24_">
					<use xlink:href="#SVGID_23_"  overflow="visible"/>
				</clipPath>
				<polyline clip-path="url(#SVGID_24_)" points="280.979,76.848 265.629,76.848 230.317,0.746 250.926,0.746 273.645,53.791 
					296.361,0.746 316.29,0.746 280.979,76.848 				"/>
			</g>
			<g>
				<defs>
					<rect id="SVGID_25_" width="528" height="167"/>
				</defs>
				<clipPath id="SVGID_26_">
					<use xlink:href="#SVGID_25_"  overflow="visible"/>
				</clipPath>
				<polyline clip-path="url(#SVGID_26_)" points="45.123,76.848 26.895,76.848 26.895,16.817 0,16.817 0,0.746 71.904,0.746 
					71.904,16.817 45.123,16.817 45.123,76.848 				"/>
			</g>
			<g>
				<defs>
					<rect id="SVGID_27_" width="528" height="167"/>
				</defs>
				<clipPath id="SVGID_28_">
					<use xlink:href="#SVGID_27_"  overflow="visible"/>
				</clipPath>
				<path clip-path="url(#SVGID_28_)" d="M192.567,46.365l10.058-23.471l10.06,23.471H192.567 M210.641,0.746h-15.234
					l-35.314,76.102h19.362l6.695-15.66h32.955l6.81,15.66h20.039L210.641,0.746z"/>
			</g>
			<g>
				<defs>
					<rect id="SVGID_29_" width="528" height="167"/>
				</defs>
				<clipPath id="SVGID_30_">
					<use xlink:href="#SVGID_29_"  overflow="visible"/>
				</clipPath>
				<path clip-path="url(#SVGID_30_)" d="M124.697,33.882H99.142V16.477h24.42c2.85,0,5.806,0.346,8.143,2.885
					c1.517,1.517,2.319,3.51,2.319,5.762C134.024,30.117,130.014,33.882,124.697,33.882 M137.803,46.455
					c9.271-4.421,14.561-12.141,14.561-21.331c0-5.952-2.273-11.637-6.405-16.011c-5.372-5.63-12.884-8.366-22.965-8.366H80.913
					v76.101h18.229V49.614h20.424l14.979,27.234h20.941L137.803,46.455z"/>
			</g>
		</g>
	</g>
</g>
</svg>
